<svg width="16" height="16" viewBox="0 0 16 16" fill="none" xmlns="http://www.w3.org/2000/svg">
<path d="M10.9642 6.57421C11.146 6.39273 11.1462 6.09823 10.9648 5.91643C10.7833 5.73463 10.4888 5.73437 10.307 5.91585L7.11959 9.09762L5.69315 7.67118C5.51151 7.48954 5.21701 7.48954 5.03537 7.67118C4.85373 7.85282 4.85373 8.14732 5.03537 8.32896L6.79041 10.084C6.97194 10.2655 7.26621 10.2656 7.4479 10.0843L10.9642 6.57421Z" fill="#354E18"/>
<path fill-rule="evenodd" clip-rule="evenodd" d="M7.99992 1.33337C4.33219 1.33337 1.33325 4.33231 1.33325 8.00004C1.33325 11.6678 4.33219 14.6667 7.99992 14.6667C11.6676 14.6667 14.6666 11.6678 14.6666 8.00004C14.6666 4.33231 11.6676 1.33337 7.99992 1.33337ZM2.26348 8.00004C2.26348 4.84607 4.84594 2.26361 7.99992 2.26361C11.1539 2.26361 13.7364 4.84607 13.7364 8.00004C13.7364 11.154 11.1539 13.7365 7.99992 13.7365C4.84594 13.7365 2.26348 11.154 2.26348 8.00004Z" fill="#354E18"/>
</svg>
