<svg width="44" height="44" viewBox="0 0 44 44" fill="none" xmlns="http://www.w3.org/2000/svg">
<path d="M0 22C0 9.84974 9.84974 0 22 0C34.1503 0 44 9.84974 44 22C44 34.1503 34.1503 44 22 44C9.84974 44 0 34.1503 0 22Z" fill="#B6DA8B"/>
<path d="M21.106 15.0508L19.0717 19.1447L14.5203 19.8033C13.7041 19.9208 13.377 20.9195 13.9689 21.4916L17.2618 24.6764L16.483 29.1753C16.3428 29.9885 17.2057 30.5977 17.9284 30.2174L22.0001 28.0931L26.0717 30.2174C26.7945 30.5946 27.6574 29.9885 27.5172 29.1753L26.7384 24.6764L30.0312 21.4916C30.6231 20.9195 30.296 19.9208 29.4798 19.8033L24.9284 19.1447L22.8942 15.0508C22.5297 14.3211 21.4736 14.3118 21.106 15.0508Z" fill="#588028"/>
</svg>
